<svg xmlns="http://www.w3.org/2000/svg"  viewBox="0 0 50 50" width="50px" height="50px"><path d="M 25 2 C 12.309288 2 2 12.309297 2 25 C 2 37.690703 12.309288 48 25 48 C 37.690712 48 48 37.690703 48 25 C 48 12.309297 37.690712 2 25 2 z M 25 4 C 36.609833 4 46 13.390175 46 25 C 46 36.609825 36.609833 46 25 46 C 13.390167 46 4 36.609825 4 25 C 4 13.390175 13.390167 4 25 4 z M 20 16 C 15.862963 16 13 19.443248 13 23.400391 C 13 26.783724 15.696309 29.839246 18.28125 32.244141 C 19.57372 33.446588 20.871851 34.475753 21.876953 35.236328 C 22.379504 35.616616 22.808435 35.929986 23.123047 36.160156 C 23.437659 36.390327 23.737489 36.651553 23.59375 36.507812 L 23.625 36.539062 L 24.900391 37.601562 L 26.125 36.580078 L 26.134766 36.574219 L 26.140625 36.568359 C 26.097605 36.604019 26.352312 36.42146 26.667969 36.201172 C 26.993214 35.974192 27.431858 35.664079 27.945312 35.285156 C 28.972224 34.527311 30.295198 33.495888 31.613281 32.287109 C 34.249373 29.869633 37 26.795629 37 23.400391 C 37 19.443248 34.137037 16 30 16 C 27.322948 16 25.818066 17.524285 25 18.515625 C 24.181934 17.524285 22.677052 16 20 16 z M 20 18 C 22.333333 18 24.167969 20.554687 24.167969 20.554688 L 25 21.802734 L 25.832031 20.554688 C 25.832031 20.554688 27.666667 18 30 18 C 33.062963 18 35 20.357533 35 23.400391 C 35 25.605153 32.750552 28.530058 30.261719 30.8125 C 29.017302 31.953721 27.746526 32.946126 26.757812 33.675781 C 26.263457 34.040609 25.838817 34.341042 25.521484 34.5625 C 25.21762 34.774559 25.080168 34.859987 24.902344 35 L 24.939453 35.03125 L 25.007812 35.09375 C 24.964552 35.05049 24.931392 35.039279 24.894531 35.005859 C 24.888931 35.010259 24.8807 35.014961 24.875 35.019531 L 24.892578 35.003906 C 24.701617 34.83116 24.56971 34.740767 24.304688 34.546875 C 23.987659 34.314936 23.570496 34.010728 23.083984 33.642578 C 22.110962 32.906278 20.864561 31.916303 19.644531 30.78125 C 17.204472 28.511145 15 25.617057 15 23.400391 C 15 20.357533 16.937037 18 20 18 z"/></svg>